HIERARCHY
ROOT Hips
{
	OFFSET 0.000000 0.000000 0.000000
	CHANNELS 6 Xposition Yposition Zposition Zrotation Yrotation Xrotation 
	JOINT LHipJoint
	{
		OFFSET 0.000000 0.000000 0.000000
		CHANNELS 3 Zrotation Yrotation Xrotation
		JOINT LeftUpLeg
		{
			OFFSET 1.363060 -1.794630 0.839290
			CHANNELS 3 Zrotation Yrotation Xrotation
			JOINT LeftLeg
			{
				OFFSET 2.448110 -6.726130 0.000000
				CHANNELS 3 Zrotation Yrotation Xrotation
				JOINT LeftFoot
				{
					OFFSET 2.562200 -7.039590 0.000000
					CHANNELS 3 Zrotation Yrotation Xrotation
					JOINT LeftToeBase
					{
						OFFSET 0.157640 -0.433110 2.322550
						CHANNELS 3 Zrotation Yrotation Xrotation
						End Site
						{
							OFFSET 0.000000 0.000000 0.000000
						}
					}
				}
			}
		}
	}
	JOINT RHipJoint
	{
		OFFSET 0.000000 0.000000 0.000000
		CHANNELS 3 Zrotation Yrotation Xrotation
		JOINT RightUpLeg
		{
			OFFSET -1.305520 -1.794630 0.839290
			CHANNELS 3 Zrotation Yrotation Xrotation
			JOINT RightLeg
			{
				OFFSET -2.542530 -6.985550 0.000000
				CHANNELS 3 Zrotation Yrotation Xrotation
				JOINT RightFoot
				{
					OFFSET -2.568260 -7.056230 0.000000
					CHANNELS 3 Zrotation Yrotation Xrotation
					JOINT RightToeBase
					{
						OFFSET -0.164730 -0.452590 2.363150
						CHANNELS 3 Zrotation Yrotation Xrotation
						End Site
						{
							OFFSET 0.000000 0.000000 0.000000
						}
					}
				}
			}
		}
	}
}
MOTION
Frames: 33
Frame Time: 0.008333
-19.952585 15.723504 -0.353897 130.769472 85.005467 153.196802 -6.989048 1.749183 10.201246 -9.180682 -22.660031 -65.665573 -1.586977 1.298292 30.245205 0.814158 4.145145 2.610694 1.564001 -0.000000 -30.387800 10.642556 -5.120830 1.195653 7.556319 -9.738282 10.973703 2.022398 0.100910 4.878546 0.672970 5.412245 7.430945 0.921799 -0.000000 -73.682700
-19.701983 15.765927 -0.338460 129.690606 84.539453 151.903344 -6.836248 1.846049 10.160401 -9.864194 -23.042576 -64.808724 -1.528848 1.368761 31.304726 0.991703 4.886011 1.877976 1.644200 0.000000 -30.229700 10.890827 -5.230571 1.170646 6.833701 -9.982744 10.242410 1.695986 -0.285655 7.249031 0.629515 5.709130 11.047097 1.348900 -0.000001 -78.172000
-19.456063 15.812079 -0.325269 128.580916 84.147395 150.503899 -6.714275 1.925762 10.056078 -10.657727 -23.194281 -63.720375 -1.509423 1.427792 32.221879 1.150278 5.508827 0.988385 1.661300 -0.000000 -30.006500 11.152387 -5.313140 1.119905 6.071211 -10.327073 9.331410 1.329481 -0.659566 9.973768 0.538792 6.262820 14.873854 1.964300 -0.000000 -81.548200
-19.215359 15.861295 -0.314340 127.407036 83.812277 148.977785 -6.624257 1.990286 9.898531 -11.539016 -23.139525 -62.420605 -1.525635 1.475392 32.983387 1.284919 6.000457 -0.006919 1.617800 0.000000 -29.658300 11.423919 -5.351794 1.049115 5.272816 -10.760248 8.246741 0.934935 -0.992936 13.007413 0.388930 7.017163 18.795465 2.776200 0.000000 -83.421699
-18.980071 15.912964 -0.305781 126.213206 83.520001 147.388671 -6.567676 2.041516 9.701542 -12.470249 -22.908483 -60.949389 -1.571808 1.510953 33.581830 1.391837 6.351623 -1.055940 1.522200 -0.000000 -29.153500 11.692409 -5.333468 0.967249 4.470242 -11.241891 7.006674 0.537795 -1.262417 16.283205 0.178956 7.834913 22.637413 3.719999 -0.000000 -83.530300
-18.750192 15.966590 -0.298379 124.851935 83.229483 145.592310 -6.525790 2.090012 9.482653 -13.455697 -22.572348 -59.304410 -1.647505 1.531930 33.980652 1.474201 6.591101 -2.101642 1.393700 0.000000 -28.489800 11.963923 -5.246093 0.864681 3.617895 -11.805455 5.636003 0.166460 -1.459119 19.756164 -0.074876 8.589113 26.171753 4.684101 -0.000000 -81.792600
-18.525225 16.021888 -0.293260 123.637574 82.957745 143.933565 -6.511187 2.132632 9.256704 -14.411799 -22.142817 -57.570487 -1.739570 1.538531 34.207435 1.528970 6.703488 -3.111508 1.240600 0.000000 -27.695700 12.204458 -5.102192 0.755349 2.822544 -12.371228 4.146374 -0.148958 -1.592679 23.355364 -0.350773 8.988833 29.177520 5.432400 -0.000000 -78.477500
-18.304472 16.078716 -0.290103 122.606832 82.695156 142.459342 -6.515400 2.174028 9.039043 -15.310663 -21.669444 -55.776459 -1.842315 1.529396 34.258389 1.560557 6.714703 -4.054531 1.078500 -0.000000 -26.816300 12.410357 -4.914369 0.633234 2.089984 -12.953205 2.542441 -0.398684 -1.686564 27.046446 -0.625426 8.832967 31.460340 5.757000 0.000000 -74.138001
-18.087695 16.137013 -0.288449 121.750016 82.432709 141.167753 -6.528306 2.217364 8.841874 -16.137032 -21.201009 -53.941360 -1.951433 1.503324 34.128783 1.575749 6.661513 -4.908874 0.921000 0.000000 -25.909599 12.584149 -4.695162 0.492866 1.414646 -13.560720 0.825493 -0.589636 -1.767354 30.800004 -0.885029 7.982234 32.884068 5.512400 0.000001 -69.474300
-17.874396 16.196802 -0.288259 121.095653 82.177619 140.100572 -6.548039 2.260999 8.672606 -16.864962 -20.763622 -52.098631 -2.061133 1.460081 33.830869 1.580443 6.572866 -5.667786 0.775600 0.000000 -25.034099 12.723895 -4.457643 0.337902 0.820369 -14.166623 -1.009148 -0.737059 -1.857229 34.585194 -1.125053 6.386622 33.369628 4.656700 0.000000 -65.108500
-17.663872 16.258031 -0.289917 120.662239 81.948723 139.290665 -6.578409 2.300445 8.534163 -17.466502 -20.364818 -50.288303 -2.165202 1.400254 33.389633 1.579575 6.471058 -6.336395 0.645200 0.000000 -24.239400 12.825896 -4.213665 0.177914 0.343937 -14.725161 -2.971796 -0.857335 -1.970917 38.373186 -1.345527 4.118586 32.876810 3.278900 0.000000 -61.353600
-17.456286 16.320557 -0.292999 120.324571 81.751440 138.616619 -6.614527 2.334683 8.425287 -17.948941 -20.016419 -48.517104 -2.261932 1.324029 32.812851 1.580279 6.392135 -6.920577 0.532100 0.000000 -23.562800 12.897424 -3.966603 0.017960 -0.023911 -15.209321 -5.060585 -0.964580 -2.115460 42.133151 -1.546822 1.381959 31.395552 1.594801 0.000000 -58.177700
-17.251501 16.384108 -0.297452 119.984517 81.601588 137.984018 -6.657476 2.361280 8.339960 -18.314077 -19.708020 -46.796728 -2.348899 1.232413 32.119873 1.587114 6.357854 -7.433552 0.434700 0.000000 -23.023800 12.941154 -3.720727 -0.131847 -0.276755 -15.576837 -7.269325 -1.066970 -2.291514 45.820472 -1.729133 -1.569643 28.965396 -0.128700 0.000000 -55.320100
-17.049254 16.448261 -0.302877 119.488142 81.508437 137.236501 -6.704261 2.380235 8.268736 -18.581995 -19.426895 -45.120036 -2.426181 1.126358 31.320480 1.604329 6.389752 -7.887371 0.350900 0.000000 -22.624400 12.964097 -3.475877 -0.263515 -0.431700 -15.795690 -9.579009 -1.167291 -2.494199 49.380608 -1.892146 -4.468249 25.681904 -1.627000 -0.000000 -52.399000
-16.849810 16.512636 -0.309354 118.750007 81.490464 136.284640 -6.760102 2.389728 8.198452 -18.759505 -19.137912 -43.487076 -2.492458 1.007746 30.438038 1.632025 6.486955 -8.298223 0.276100 0.000000 -22.347100 12.966226 -3.235377 -0.364967 -0.483851 -15.824104 -11.965242 -1.262724 -2.714381 52.750001 -2.036546 -7.101198 21.707406 -2.710100 0.000001 -49.049100
-16.652902 16.576676 -0.316714 117.655142 81.556233 135.005058 -6.826561 2.390290 8.115298 -18.865215 -18.808395 -41.883990 -2.548479 0.878535 29.487336 1.669158 6.643844 -8.678087 0.206500 -0.000000 -22.161500 12.950508 -2.999252 -0.427691 -0.447511 -15.637338 -14.395954 -1.347285 -2.940691 55.868157 -2.162706 -9.317659 17.250137 -3.283400 -0.000000 -44.961100
-16.458852 16.639786 -0.324694 116.087606 81.707655 133.273368 -6.903647 2.383702 8.006829 -18.919703 -18.408522 -40.293450 -2.595903 0.740721 28.478530 1.713329 6.848095 -9.035697 0.138800 0.000000 -22.027600 12.920177 -2.766058 -0.446094 -0.343481 -15.225800 -16.838070 -1.413924 -3.161706 58.682359 -2.270245 -11.039345 12.547367 -3.355000 0.000000 -39.963800
-16.266833 16.701372 -0.333219 113.976123 81.943685 131.008202 -6.994386 2.371337 7.862606 -18.934492 -17.904769 -38.704181 -2.636106 0.596999 27.427984 1.759160 7.071277 -9.379657 0.069700 0.000000 -21.902700 12.874791 -2.536611 -0.415726 -0.180986 -14.590003 -19.259702 -1.457045 -3.367232 61.148178 -2.359110 -12.260638 7.851557 -3.021400 -0.000000 -34.144800
-16.076865 16.760830 -0.342108 111.242595 82.252437 128.123834 -7.097941 2.355797 7.676807 -18.923259 -17.277561 -37.105046 -2.671488 0.449771 26.344426 1.801347 7.285375 -9.714161 -0.002500 0.000001 -21.748600 12.815646 -2.309673 -0.336075 0.024410 -13.747706 -21.634879 -1.475043 -3.549288 63.232358 -2.429185 -13.023204 3.413746 -2.429000 -0.000000 -27.907400
-15.888053 16.817568 -0.351146 107.835018 82.614840 124.564380 -7.212455 2.339696 7.448687 -18.893724 -16.518317 -35.492261 -2.704478 0.301283 25.235173 1.834271 7.460013 -10.040892 -0.078400 -0.000001 -21.537601 12.743741 -2.084584 -0.208919 0.261849 -12.728748 -23.945800 -1.470981 -3.702513 64.913748 -2.480116 -13.398341 -0.538163 -1.736000 -0.000000 -21.932900
-15.699628 16.871025 -0.360060 103.736542 83.004601 120.311565 -7.334331 2.325633 7.182988 -18.851891 -15.632954 -33.865624 -2.737644 0.153248 24.103353 1.853205 7.568616 -10.359041 -0.156900 -0.000000 -21.256900 12.660465 -1.861414 -0.038700 0.520874 -11.575196 -26.182643 -1.450756 -3.824704 66.186755 -2.509987 -13.461657 -3.844735 -1.073300 0.000000 -16.883100
-15.510726 16.920697 -0.368627 98.994357 83.392122 115.414329 -7.458946 2.315741 6.889086 -18.801169 -14.641165 -32.229739 -2.773237 0.006737 22.949247 1.854885 7.591216 -10.665888 -0.235700 0.000000 -20.910800 12.567170 -1.640945 0.167505 0.792081 -10.338618 -28.343553 -1.419251 -3.916580 67.059876 -2.516045 -13.278718 -6.451644 -0.521000 -0.000000 -13.091900
-15.320447 16.966179 -0.376541 93.747733 83.748529 110.015417 -7.581925 2.311391 6.579759 -18.743793 -13.574265 -30.590345 -2.812916 -0.137954 21.769469 1.837814 7.516917 -10.956173 -0.311500 0.000000 -20.519300 12.464353 -1.424592 0.401237 1.067325 -9.073773 -30.431685 -1.378200 -3.980705 67.550161 -2.496947 -12.903031 -8.398695 -0.108700 -0.000000 -10.536000
-15.127967 17.007159 -0.383579 88.236406 84.051638 104.360444 -7.700252 2.313246 6.269341 -18.681312 -12.470298 -28.954897 -2.857513 -0.281148 20.559016 1.802303 7.344196 -11.223615 -0.380700 0.000000 -20.114899 12.351196 -1.213931 0.654425 1.339384 -7.830801 -32.453341 -1.326399 -4.020045 67.676018 -2.454056 -12.379079 -9.781922 0.168600 -0.000000 -9.002300
-14.932593 17.043487 -0.389608 82.773551 84.290584 98.768772 -7.813006 2.321449 5.971688 -18.614060 -11.368284 -27.330065 -2.906876 -0.423576 19.311278 1.750075 7.079918 -11.460706 -0.439801 -0.000000 -19.736300 12.225575 -1.010498 0.920235 1.602410 -6.650486 -34.415077 -1.261056 -4.037032 67.453016 -2.390710 -11.742787 -10.716015 0.333700 -0.000000 -8.241699
-14.733878 17.075081 -0.394624 77.675753 84.465925 93.562104 -7.920976 2.336159 5.698470 -18.542421 -10.302960 -25.719909 -2.959990 -0.565962 18.020182 1.683853 6.737621 -11.659776 -0.486200 -0.000000 -19.422000 12.084889 -0.816030 1.193637 1.852416 -5.561193 -36.319413 -1.178878 -4.033052 66.891193 -2.310622 -11.019930 -11.311333 0.414100 0.000000 -8.047800
-14.531542 17.101943 -0.398671 73.189301 84.587975 88.991866 -8.025829 2.357321 5.457492 -18.465251 -9.301126 -24.127312 -3.015132 -0.708929 16.680240 1.606818 6.334748 -11.813568 -0.518300 -0.000000 -19.203800 11.927014 -0.632201 1.471121 2.088229 -4.577710 -38.164976 -1.076854 -4.008589 65.993982 -2.216743 -10.226864 -11.657021 0.434300 0.000000 -8.290300
-14.325610 17.124105 -0.401967 69.440017 84.671810 85.184085 -8.129846 2.384810 5.252001 -18.381008 -8.377092 -22.549113 -3.070028 -0.852750 15.287629 1.522105 5.890216 -11.915907 -0.535801 -0.000000 -19.102200 11.750887 -0.461836 1.750912 2.310530 -3.702532 -39.940501 -0.952658 -3.963369 64.757153 -2.110370 -9.371359 -11.812107 0.412200 -0.000000 -8.924499
-14.116272 17.141485 -0.404662 66.434296 84.731669 82.143793 -8.235060 2.418321 5.081496 -18.287509 -7.534908 -20.980616 -3.122174 -0.997256 13.841968 1.432518 5.422202 -11.961869 -0.539300 -0.000000 -19.124700 11.557012 -0.308878 2.032946 2.522307 -2.927715 -41.628995 -0.805163 -3.896790 63.172233 -1.991349 -8.457209 -11.802345 0.359100 -0.000001 -9.976600
-13.903988 17.154143 -0.407182 64.057293 84.781833 79.747845 -8.344358 2.455948 4.936407 -18.180236 -6.759026 -19.405998 -3.169015 -1.141701 12.342601 1.339569 4.942672 -11.948337 -0.530201 -0.000000 -19.266999 11.346715 -0.178387 2.314082 2.730041 -2.238579 -43.197240 -0.634297 -3.808213 61.223379 -1.858113 -7.488839 -11.614764 0.280300 -0.000000 -11.596700
-13.689289 17.161788 -0.409543 62.159723 84.827994 77.839330 -8.459223 2.497342 4.810677 -18.058405 -6.033523 -17.818681 -3.208513 -1.284780 10.797691 1.245007 4.462948 -11.875923 -0.510600 -0.000000 -19.513900 11.123150 -0.076244 2.596432 2.937925 -1.616722 -44.620096 -0.441371 -3.696675 58.902428 -1.708998 -6.474270 -11.225831 0.181800 0.000000 -13.860800
-13.472825 17.164186 -0.411949 60.542504 84.873907 76.206957 -8.581646 2.541078 4.691230 -17.920756 -5.328064 -16.204600 -3.239263 -1.424501 9.216235 1.149266 3.985745 -11.748261 -0.482700 -0.000000 -19.845500 10.889826 -0.007796 2.877761 3.152947 -1.043713 -45.862710 -0.227923 -3.561210 56.202760 -1.542616 -5.428521 -10.602525 0.070200 0.000000 -16.835400
-13.255237 17.160984 -0.414387 59.009511 84.918228 74.643760 -8.712925 2.586511 4.565894 -17.767949 -4.610969 -14.555735 -3.260750 -1.558374 7.613338 1.052492 3.509045 -11.573038 -0.448700 -0.000000 -20.240600 10.650796 0.023251 3.156290 3.381364 -0.504478 -46.898341 0.005275 -3.400657 53.130642 -1.358963 -4.371593 -9.735335 -0.043501 -0.000000 -20.389100
